<svg width="800px" height="800px" viewBox="0 0 800 800" xmlns="http://www.w3.org/2000/svg">
  <!-- Row 1 -->
  <g transform="translate(80, 80)">
    <path d="M20,60H100M60,20V100" style="fill: none; stroke: #cd1822; stroke-linecap: round; stroke-linejoin: round; stroke-width: 3;"/>
  </g>
  <g transform="translate(240, 80)">
    <path d="M20,60H100M60,20V100" style="fill: none; stroke: #cd1822; stroke-linecap: round; stroke-linejoin: round; stroke-width: 3;"/>
  </g>
  <g transform="translate(400, 80)">
    <path d="M20,60H100M60,20V100" style="fill: none; stroke: #cd1822; stroke-linecap: round; stroke-linejoin: round; stroke-width: 3;"/>
  </g>
  <g transform="translate(560, 80)">
    <path d="M20,60H100M60,20V100" style="fill: none; stroke: #cd1822; stroke-linecap: round; stroke-linejoin: round; stroke-width: 3;"/>
  </g>
  <g transform="translate(720, 80)">
    <path d="M20,60H100M60,20V100" style="fill: none; stroke: #cd1822; stroke-linecap: round; stroke-linejoin: round; stroke-width: 3;"/>
  </g>

  <!-- Row 2 -->
  <g transform="translate(80, 240)">
    <path d="M20,60H100M60,20V100" style="fill: none; stroke: #cd1822; stroke-linecap: round; stroke-linejoin: round; stroke-width: 3;"/>
  </g>
  <g transform="translate(240, 240)">
    <path d="M20,60H100M60,20V100" style="fill: none; stroke: #cd1822; stroke-linecap: round; stroke-linejoin: round; stroke-width: 3;"/>
  </g>
  <g transform="translate(400, 240)">
    <path d="M20,60H100M60,20V100" style="fill: none; stroke: #cd1822; stroke-linecap: round; stroke-linejoin: round; stroke-width: 3;"/>
  </g>
  <g transform="translate(560, 240)">
    <path d="M20,60H100M60,20V100" style="fill: none; stroke: #cd1822; stroke-linecap: round; stroke-linejoin: round; stroke-width: 3;"/>
  </g>
  <g transform="translate(720, 240)">
    <path d="M20,60H100M60,20V100" style="fill: none; stroke: #cd1822; stroke-linecap: round; stroke-linejoin: round; stroke-width: 3;"/>
  </g>

  <!-- Row 3 -->
  <g transform="translate(80, 400)">
    <path d="M20,60H100M60,20V100" style="fill: none; stroke: #cd1822; stroke-linecap: round; stroke-linejoin: round; stroke-width: 3;"/>
  </g>
  <g transform="translate(240, 400)">
    <path d="M20,60H100M60,20V100" style="fill: none; stroke: #cd1822; stroke-linecap: round; stroke-linejoin: round; stroke-width: 3;"/>
  </g>
  <g transform="translate(400, 400)">
    <path d="M20,60H100M60,20V100" style="fill: none; stroke: #cd1822; stroke-linecap: round; stroke-linejoin: round; stroke-width: 3;"/>
  </g>
  <g transform="translate(560, 400)">
    <path d="M20,60H100M60,20V100" style="fill: none; stroke: #cd1822; stroke-linecap: round; stroke-linejoin: round; stroke-width: 3;"/>
  </g>
  <g transform="translate(720, 400)">
    <path d="M20,60H100M60,20V100" style="fill: none; stroke: #cd1822; stroke-linecap: round; stroke-linejoin: round; stroke-width: 3;"/>
  </g>

  <!-- Row 4 -->
  <g transform="translate(80, 560)">
    <path d="M20,60H100M60,20V100" style="fill: none; stroke: #cd1822; stroke-linecap: round; stroke-linejoin: round; stroke-width: 3;"/>
  </g>
  <g transform="translate(240, 560)">
    <path d="M20,60H100M60,20V100" style="fill: none; stroke: #cd1822; stroke-linecap: round; stroke-linejoin: round; stroke-width: 3;"/>
  </g>
  <g transform="translate(400, 560)">
    <path d="M20,60H100M60,20V100" style="fill: none; stroke: #cd1822; stroke-linecap: round; stroke-linejoin: round; stroke-width: 3;"/>
  </g>
  <g transform="translate(560, 560)">
    <path d="M20,60H100M60,20V100" style="fill: none; stroke: #cd1822; stroke-linecap: round; stroke-linejoin: round; stroke-width: 3;"/>
  </g>
  <g transform="translate(720, 560)">
    <path d="M20,60H100M60,20V100" style="fill: none; stroke: #cd1822; stroke-linecap: round; stroke-linejoin: round; stroke-width: 3;"/>
  </g>

  <!-- Row 5 -->
  <g transform="translate(80, 720)">
    <path d="M20,60H100M60,20V100" style="fill: none; stroke: #cd1822; stroke-linecap: round; stroke-linejoin: round; stroke-width: 3;"/>
  </g>
  <g transform="translate(240, 720)">
    <path d="M20,60H100M60,20V100" style="fill: none; stroke: #cd1822; stroke-linecap: round; stroke-linejoin: round; stroke-width: 3;"/>
  </g>
  <g transform="translate(400, 720)">
    <path d="M20,60H100M60,20V100" style="fill: none; stroke: #cd1822; stroke-linecap: round; stroke-linejoin: round; stroke-width: 3;"/>
  </g>
  <g transform="translate(560, 720)">
    <path d="M20,60H100M60,20V100" style="fill: none; stroke: #cd1822; stroke-linecap: round; stroke-linejoin: round; stroke-width: 3;"/>
  </g>
  <g transform="translate(720, 720)">
    <path d="M20,60H100M60,20V100" style="fill: none; stroke: #cd1822; stroke-linecap: round; stroke-linejoin: round; stroke-width: 3;"/>
  </g>
</svg>