<svg xmlns="http://www.w3.org/2000/svg" viewBox="0 0 800 800">
  <defs>
    <!-- Micro patterns with much smaller shapes -->
    <pattern id="microPattern" x="0" y="0" width="50" height="50" patternUnits="userSpaceOnUse">
      <!-- Tiny Blue X shapes -->
      <path d="M10,10 L16,16 M16,10 L10,16" stroke="#0066cc" stroke-width="1.5" stroke-linecap="round" opacity="0.7"/>
      <path d="M35,35 L41,41 M41,35 L35,41" stroke="#0099ff" stroke-width="1.5" stroke-linecap="round" opacity="0.6"/>
      <path d="M10,35 L16,41 M16,35 L10,41" stroke="#0077dd" stroke-width="1.5" stroke-linecap="round" opacity="0.7"/>
      <path d="M35,10 L41,16 M41,10 L35,16" stroke="#0088ee" stroke-width="1.5" stroke-linecap="round" opacity="0.6"/>
      
      <!-- Micro circles -->
      <circle cx="13" cy="38" r="1.5" fill="#0066cc" opacity="0.8"/>
      <circle cx="38" cy="13" r="1.5" fill="#0099ff" opacity="0.8"/>
      <circle cx="38" cy="38" r="1" fill="#0077dd" opacity="0.7"/>
      <circle cx="13" cy="13" r="1" fill="#0088ee" opacity="0.8"/>
      
      <!-- Tiny message bubbles -->
      <rect x="5" y="23" width="8" height="5" rx="2" ry="2" fill="#e6f7ff" opacity="0.3"/>
      <rect x="38" y="23" width="8" height="5" rx="2" ry="2" fill="#e1ffc7" opacity="0.3"/>
      
      <!-- Small red X (brand element) -->
      <g opacity="0.6">
        <path d="M24,24 L27,27 M27,24 L24,27" stroke="#cc0000" stroke-width="1.5" stroke-linecap="round"/>
        <circle cx="25.5" cy="25.5" r="1" fill="#cc0000" opacity="0.7"/>
      </g>
      
      <!-- Mini diamond shapes -->
      <rect x="23" y="8" width="5" height="5" transform="rotate(45 25.5 10.5)" fill="#0077dd" opacity="0.2"/>
      <rect x="8" y="23" width="5" height="5" transform="rotate(45 10.5 25.5)" fill="#0099ff" opacity="0.2"/>
    </pattern>
    
    <!-- Secondary overlay pattern with smaller elements -->
    <pattern id="smallOverlayPattern" x="0" y="0" width="120" height="120" patternUnits="userSpaceOnUse">
      <!-- Small network elements -->
      <circle cx="30" cy="30" r="15" fill="none" stroke="#0066cc" stroke-width="0.5" opacity="0.2"/>
      <circle cx="90" cy="90" r="20" fill="none" stroke="#0099ff" stroke-width="0.5" opacity="0.2"/>
      
      <!-- Tiny connection lines -->
      <path d="M15,15 L45,45 M75,15 L105,45" stroke="#0077dd" stroke-width="0.3" opacity="0.15" stroke-dasharray="2,2"/>
      <path d="M15,105 L45,75 M75,105 L105,75" stroke="#0088ee" stroke-width="0.3" opacity="0.15" stroke-dasharray="2,2"/>
      
      <!-- Small brand elements -->
      <path d="M57,57 L63,63 M63,57 L57,63" stroke="#cc0000" stroke-width="1.2" stroke-linecap="round" opacity="0.1"/>
      <circle cx="60" cy="60" r="2" fill="#cc0000" opacity="0.1"/>
    </pattern>
    
    <!-- Gradient for spherical effect -->
    <radialGradient id="sphereGradient" cx="50%" cy="50%" r="70%" fx="30%" fy="30%">
      <stop offset="0%" stop-color="white" stop-opacity="0.3" />
      <stop offset="70%" stop-color="white" stop-opacity="0.1" />
      <stop offset="100%" stop-color="white" stop-opacity="0" />
    </radialGradient>
    
    <!-- Very subtle texture -->
    <filter id="subtleNoise" x="0%" y="0%" width="100%" height="100%">
      <feTurbulence type="fractalNoise" baseFrequency="0.9" numOctaves="3" stitchTiles="stitch" result="noise"/>
      <feColorMatrix type="matrix" values="1 0 0 0 0 0 1 0 0 0 0 0 1 0 0 0 0 0 0.02 0" in="noise" result="coloredNoise"/>
      <feComposite operator="in" in="coloredNoise" in2="SourceGraphic" result="monoNoise"/>
    </filter>
  </defs>
  
  <!-- Base background color -->
  <rect x="0" y="0" width="800" height="800" fill="#fafafa"/>
  
  <!-- Subtle texture overlay -->
  <rect x="0" y="0" width="800" height="800" filter="url(#subtleNoise)" opacity="0.7"/>
  
  <!-- Micro pattern layer -->
  <rect x="0" y="0" width="800" height="800" fill="url(#microPattern)" opacity="0.8"/>
  
  <!-- Small overlay pattern layer -->
  <rect x="0" y="0" width="800" height="800" fill="url(#smallOverlayPattern)" opacity="0.7"/>
  
  <!-- Spherical highlight effect -->
  <circle cx="400" cy="400" r="500" fill="url(#sphereGradient)" opacity="0.6"/>
  
  <!-- Very subtle flowing elements -->
  <g opacity="0.07">
    <path d="M0,300 Q200,280 400,300 T800,300" stroke="#0088ee" stroke-width="20" fill="none"/>
    <path d="M0,500 Q200,480 400,500 T800,500" stroke="#0066cc" stroke-width="15" fill="none"/>
    
    <!-- Mini brand accent -->
    <path d="M390,390 L410,410 M410,390 L390,410" stroke="#cc0000" stroke-width="3" stroke-linecap="round"/>
    <circle cx="400" cy="400" r="4" fill="#cc0000"/>
  </g>
</svg>